<svg xmlns="http://www.w3.org/2000/svg" xmlns:xlink="http://www.w3.org/1999/xlink" version="1.1" x="0px" y="0px" viewBox="0 0 100 125" enable-background="new 0 0 100 100" xml:space="preserve">
  <g>
    <circle fill="#000000" cx="38.789" cy="34.124" r="4.496" />
    <path fill="#000000" d="M34.293,60.21c0,2.482,2.014,4.496,4.496,4.496s4.496-2.014,4.496-4.496c0-2.404-1.891-4.35-4.264-4.473   h-0.465C36.184,55.861,34.293,57.806,34.293,60.21z" />
    <circle fill="#000000" cx="25.632" cy="60.21" r="4.497" />
    <circle fill="#000000" cx="45.367" cy="47.167" r="4.496" />
    <circle fill="#000000" cx="32.211" cy="47.167" r="4.496" />
    <circle fill="#000000" cx="32.078" cy="73.253" r="4.496" />
    <circle fill="#000000" cx="18.922" cy="73.253" r="4.496" />
    <polygon fill="#000000" points="57.032,19.724 47.736,38.621 66.328,38.621  " />
    <path fill="#000000" d="M38.557,55.738h0.465c-0.078-0.004-0.152-0.023-0.232-0.023S38.635,55.734,38.557,55.738z" />
    <polygon fill="#000000" points="54.289,51.687 72.754,51.687 68.32,42.671 54.289,42.671  " />
    <polygon fill="#000000" points="79.219,64.829 74.748,55.738 47.711,55.738 47.711,64.829  " />
    <polygon fill="#000000" points="85.574,77.75 81.211,68.878 41,68.878 41,77.75  " />
  </g>
</svg>
