<svg xmlns="http://www.w3.org/2000/svg" xmlns:xlink="http://www.w3.org/1999/xlink" version="1.1" x="0px" y="0px" viewBox="0 0 100 125" enable-background="new 0 0 100 100" xml:space="preserve">
    <g>
        <g>
            <g>
                <path fill="#000000" d="M41.984,90.819H19.636V22.854h22.348V90.819z M23.168,87.288h15.281V26.381H23.168V87.288z" />
            </g>
        </g>
        <g>
            <g>
                <path fill="#000000" d="M40.36,35.201H20.836L3.339,22.853h88.472l0.296,3.501L40.36,35.201z M21.959,31.671h18.102l30.964-5.288     H14.459L21.959,31.671z" />
            </g>
        </g>
        <g>
            <g>
                <rect x="29.049" y="9.181" fill="#000000" width="3.512" height="15.435" />
            </g>
        </g>
        <g>
            <g>
                <rect x="87.83" y="24.616" fill="#000000" width="3.531" height="39.248" />
            </g>
        </g>
        <g>
            <g>
                <path fill="#000000" d="M96.663,75.774H82.991V62.104h13.667v13.671H96.663z M86.514,72.246h6.623v-6.614h-6.623V72.246z" />
            </g>
        </g>
        <g>
            <g>
                <rect x="21.398" y="41.231" fill="#000000" width="18.821" height="3.524" />
            </g>
        </g>
        <g>
            <g>
                <rect x="21.398" y="50.44" fill="#000000" width="18.821" height="3.525" />
            </g>
        </g>
        <g>
            <g>
                <rect x="21.398" y="59.651" fill="#000000" width="18.821" height="3.531" />
            </g>
        </g>
        <g>
            <g>
                <rect x="21.398" y="78.079" fill="#000000" width="18.821" height="3.526" />
            </g>
        </g>
        <g>
            <g>
                <rect x="21.398" y="87.288" fill="#000000" width="18.821" height="3.531" />
            </g>
        </g>
        <g>
            <g>
                <rect x="21.398" y="68.868" fill="#000000" width="18.821" height="3.521" />
            </g>
        </g>
        <g>
            <g>
                <rect x="8.898" y="87.288" fill="#000000" width="58.071" height="3.531" />
            </g>
        </g>
        <g>
            <g>
                <g>
                    <polygon fill="#000000" points="23.105,44.547 21.45,41.439 39.393,31.879 41.037,34.995     " />
                </g>
            </g>
            <g>
                <g>
                    <polygon fill="#000000" points="23.105,53.762 21.45,50.647 39.393,41.091 41.037,44.208     " />
                </g>
            </g>
            <g>
                <g>
                    <polygon fill="#000000" points="23.105,62.975 21.45,59.861 39.393,50.304 41.037,53.418     " />
                </g>
            </g>
        </g>
        <g>
            <g>
                <g>
                    <polygon fill="#000000" points="23.105,72.188 21.45,69.076 39.393,59.517 41.037,62.633     " />
                </g>
            </g>
            <g>
                <g>
                    <polygon fill="#000000" points="23.105,81.396 21.45,78.286 39.393,68.731 41.037,71.848     " />
                </g>
            </g>
            <g>
                <g>
                    <rect x="29.493" y="74.11" transform="matrix(-0.4694 -0.883 0.883 -0.4694 -28.4872 151.4235)" fill="#000000" width="3.525" height="20.323" />
                </g>
            </g>
        </g>
    </g>
</svg>
